<?xml version="1.0" encoding="UTF-8"?>
<svg width="1200pt" height="1200pt" version="1.1" viewBox="0 0 1200 1200" xmlns="http://www.w3.org/2000/svg">
 <g>
  <path d="m885.34 810.55c-7.957 0-14.398-6.457-14.398-14.398v-1.9062c0-19.344-0.75781-38.328-2.2422-56.41-0.66016-7.9336 5.2422-14.879 13.164-15.527 7.8945-0.76953 14.879 5.2422 15.527 13.164 1.5586 18.863 2.3516 38.641 2.3516 58.777v1.9062c-0.003906 7.9414-6.457 14.395-14.402 14.395zm-10.285-118.87c-6.7812 0-12.816-4.8008-14.125-11.711-3.7305-19.621-8.5664-38.52-14.387-56.207-2.4844-7.5469 1.6328-15.695 9.1914-18.18 7.5352-2.4727 15.695 1.6328 18.18 9.1914 6.2031 18.852 11.352 38.988 15.312 59.82 1.4883 7.8125-3.6367 15.348-11.461 16.836-0.91016 0.16797-1.8086 0.25-2.7109 0.25zm-37.762-113.3c-5.2305 0-10.273-2.8555-12.828-7.8359-8.8555-17.27-19.117-33.574-30.492-48.48-4.8242-6.3242-3.6133-15.359 2.6992-20.184 6.3242-4.8242 15.359-3.6133 20.184 2.6992 12.422 16.262 23.594 34.031 33.238 52.824 3.625 7.0664 0.82812 15.758-6.2383 19.379-2.0977 1.0938-4.3555 1.5977-6.5625 1.5977zm-72.492-94.582c-3.4219 0-6.8516-1.2109-9.6016-3.6836-13.992-12.527-29.461-24.035-45.973-34.176-6.7695-4.1641-8.8906-13.031-4.7266-19.812 4.1758-6.7812 13.031-8.8789 19.812-4.7266 17.977 11.039 34.824 23.578 50.102 37.273 5.9297 5.3047 6.4219 14.41 1.1172 20.328-2.8477 3.1758-6.7852 4.7969-10.73 4.7969zm-632.36-55.047c-6.0859 0-11.734-3.875-13.703-9.9844-2.4492-7.5586 1.7031-15.684 9.2656-18.133 0.91016-0.28906 22.777-7.3203 59.113-15.973 7.7539-1.8008 15.504 2.9414 17.34 10.68 1.8359 7.7383-2.9414 15.504-10.68 17.34-35.125 8.3633-56.711 15.289-56.93 15.359-1.457 0.48438-2.9453 0.71094-4.4062 0.71094zm530.93-7.7852c-1.8359 0-3.707-0.34766-5.5078-1.1055-17.23-7.1406-35.746-13.355-55.02-18.492-7.6914-2.0391-12.266-9.9375-10.223-17.617 2.0391-7.6914 9.9609-12.254 17.617-10.223 20.52 5.4609 40.246 12.086 58.656 19.715 7.3438 3.0352 10.836 11.473 7.7891 18.816-2.3086 5.5586-7.6719 8.9062-13.312 8.9062zm-414.19-20.316c-6.8047 0-12.852-4.8359-14.137-11.773-1.4531-7.8242 3.707-15.336 11.52-16.789 20.074-3.7305 40.262-6.9609 60-9.6016 7.9336-1.0938 15.133 4.4883 16.188 12.359 1.0547 7.8828-4.4883 15.133-12.359 16.188-19.262 2.5664-38.965 5.7227-58.559 9.3594-0.88672 0.17188-1.7773 0.25781-2.6523 0.25781zm298.61-10.922c-0.71875 0-1.4531-0.046875-2.1836-0.16797-18.637-2.8438-38.281-4.9062-58.391-6.1328-7.9453-0.49219-13.98-7.3203-13.5-15.254 0.49219-7.9453 7.1758-13.922 15.254-13.5 20.977 1.2852 41.484 3.4453 60.973 6.4062 7.8594 1.1992 13.262 8.543 12.07 16.402-1.0977 7.1367-7.2266 12.246-14.223 12.246zm-179.64-4.8711c-7.4531 0-13.754-5.7461-14.34-13.297-0.61328-7.9336 5.3164-14.855 13.246-15.469 20.676-1.5977 41.16-2.543 60.875-2.7969h0.19141c7.8594 0 14.293 6.3242 14.387 14.219 0.10938 7.957-6.2539 14.484-14.207 14.578-19.094 0.25391-38.965 1.1758-59.027 2.7227-0.37109 0.019531-0.75391 0.042968-1.125 0.042968z"/>
  <path d="m880.04 835.4c-9.9102 0-19.285-5.0508-25.727-13.859l-79.078-108.06c-4.7031-6.4219-3.3008-15.434 3.1211-20.125 6.4062-4.6914 15.434-3.2891 20.125 3.1211l79.078 108.06c2.4844 3.3828 2.4961 3.3828 4.9805-0.011718l78.238-107.96c4.6797-6.4453 13.668-7.8711 20.113-3.2148 6.4453 4.668 7.8711 13.668 3.2148 20.113l-78.238 107.96c-6.4336 8.8672-15.805 13.969-25.738 13.992-0.039062-0.015625-0.066406-0.015625-0.089843-0.015625z"/>
 </g>
</svg>
