<?xml version="1.0" encoding="UTF-8"?>
<svg width="1200pt" height="1200pt" version="1.1" viewBox="0 0 1200 1200" xmlns="http://www.w3.org/2000/svg">
 <path d="m324 996c0 8.1602 4.4414 20.16 24 32.16v39.84l0.71875 6.8398c1.6094 7.0938 5.3281 13.535 10.68 18.48 34.559 33.359 129.24 45.238 241.08 45.238 111.84 0 251.52-9.2383 251.52-70.559v-39.961c19.68-12 24-24 24-32.16l48-744c1.3203-36-5.0391-84.84-40.199-120-20.605-18.898-45.938-31.883-73.32-37.559-62.844-20.219-128.28-31.211-194.28-32.641-71.258-1.2227-142.3 8.2812-210.72 28.199l-15.602 3.9609c-27.828 5.3516-53.531 18.602-74.039 38.16-35.039 34.922-41.398 84-39.84 120m73.922-86.52c14.473-13.164 33.145-21.277 52.441-24.48l15.719-3.9609c63.961-19.031 130.44-28.262 197.16-27.359 61.957 1.3203 123.39 11.629 182.4 30.602 25.68 7.1992 40.078 12.84 52.441 25.199 28.32 28.441 28.199 73.922 25.078 101.16-23.16 12-116.28 31.68-275.16 31.68h-12c-24.938-1.5234-46.391 17.449-47.914 42.383-0.035157 0.67188-0.070313 1.3438-0.085938 2.0156v196.08c0 13.262-10.738 24-24 24s-24-10.738-24-24v-194.88c0-48-48-53.039-48-53.039-64.559-6.7188-104.76-16.559-118.8-24-3.4805-27.602-3.3594-72.961 24.723-101.4m358.08 503.28c-13.262 0-24-10.738-24-24s10.738-24 24-24 24 10.738 24 24c0 13.258-10.738 24-24 24zm24 168c0 13.262-10.738 24-24 24s-24-10.738-24-24 10.738-24 24-24 24 10.738 24 24v0.35938zm24-120c13.262 0 24 10.738 24 24s-10.738 24-24 24-24-10.738-24-24c0.070312-13.211 10.789-23.879 24-23.879zm0-144c-13.262 0-24-10.738-24-24s10.738-24 24-24 24 10.738 24 24c-0.070312 13.211-10.789 23.879-24 23.879zm-168-154.32v-72h12c68.207 1.2109 136.4-2.7969 204-12v62.762c-20.398 8.875-94.801 22.797-216 21.238zm-144-78.602v68.16c-16.355-1.9805-32.449-5.7227-48-11.16v-63c13.922 2.1602 29.879 4.3203 48 6zm-120-24c7.0781 2.6406 15 5.1602 24 7.6797l48 620.88c0.10938 1.8945 0.64844 3.7422 1.5586 5.3984 16.32 30.602 56.762 46.203 202.44 46.203 142.56 0 184.32-14.641 201.96-43.559 1.6797-2.9414 2.6641-6.2266 2.8789-9.6016l47.16-618.84c9.1211-2.5195 17.039-5.0391 24-7.6797l-46.801 654.36c-0.80469 12.383-8.6523 23.207-20.16 27.84-28.32 11.281-84 24-209.64 24-150.96 0-200.88-17.52-223.68-30-2.9766-1.5117-4.9336-4.4766-5.1602-7.8008zm72 731.04c48 12.84 77.16 22.68 204 22.68s156.96-9.8398 204-22.68v13.68c-20.281 12-58.199 29.52-204 29.52s-183.96-18.121-204-29.52z"/>
</svg>
